<svg xmlns="http://www.w3.org/2000/svg" width="125" height="32" viewBox="0 0 125 32">
    <g fill="none" fill-rule="evenodd">
        <g>
            <g>
                <g fill="#FFF">
                    <path d="M11.99 22.7c6.612 0 11.495-4.766 11.495-11.15C23.485 5.164 18.602.397 11.99.397 5.4.398.537 5.165.537 11.55.537 17.934 5.398 22.7 11.99 22.7zm0-5.313c-3.22 0-5.628-2.405-5.628-5.838 0-3.433 2.409-5.838 5.627-5.838 3.22 0 5.65 2.405 5.65 5.838 0 3.433-2.43 5.838-5.65 5.838zm21.418 4.767v-11.61c0-3.193 2.037-4.789 4.49-4.789 2.605 0 4.138 1.684 4.138 4.745v11.654h5.715v-11.61c0-3.193 2.036-4.789 4.489-4.789 2.584 0 4.138 1.684 4.138 4.745v11.654h5.694V8.664c0-4.92-3.372-8.266-8.365-8.266-2.78 0-5.562.94-7.204 3.63C45.08 1.776 42.56.398 39.496.398c-2.409 0-4.73.81-6.24 3.061V.967h-5.563v21.187h5.715zm42.988.546c2.912 0 4.97-1.18 6.35-2.886v2.34h5.584V.967h-5.584v2.34C81.345 1.578 79.308.397 76.396.397c-5.846 0-10.27 4.789-10.27 11.151 0 6.363 4.424 11.151 10.27 11.151zm1.051-5.313c-3.35 0-5.474-2.602-5.474-5.838s2.124-5.838 5.474-5.838c3.263 0 5.474 2.493 5.474 5.838s-2.211 5.838-5.474 5.838z" transform="translate(-238 -26) translate(238 26) translate(30.143 4.306)"/>
                </g>
                <g>
                    <path fill="#FFF" d="M13.296 0c4.673 0 8.461 3.788 8.461 8.461v4.835c0 4.673-3.788 8.461-8.46 8.461H0V7.26L7.246 0h6.05zm-.604 14.505H5.439c-.667 0-1.208.541-1.208 1.209 0 .667.54 1.208 1.208 1.208h7.253c.667 0 1.209-.54 1.209-1.208 0-.668-.542-1.21-1.21-1.21zm3.626-4.835H5.439c-.667 0-1.208.541-1.208 1.209 0 .667.54 1.208 1.208 1.208h10.879c.668 0 1.209-.54 1.209-1.208 0-.668-.541-1.21-1.209-1.21zm0-4.835H5.439c-.667 0-1.208.541-1.208 1.209 0 .667.54 1.208 1.208 1.208h10.879c.668 0 1.209-.54 1.209-1.208 0-.668-.541-1.209-1.209-1.209z" transform="translate(-238 -26) translate(238 26) translate(5.742 4.91)"/>
                    <path fill="#F7AE19" fill-rule="nonzero" d="M7.252 0v5.44c0 1-.811 1.812-1.813 1.812H0L7.252 0z" transform="translate(-238 -26) translate(238 26) translate(5.742 4.91)"/>
                </g>
            </g>
        </g>
    </g>
</svg>
